<?xml version="1.0" encoding="utf-8"?>
<!-- Generator: Adobe Illustrator 18.1.1, SVG Export Plug-In . SVG Version: 6.00 Build 0)  -->
<svg version="1.1" id="Ebene_1" xmlns="http://www.w3.org/2000/svg" xmlns:xlink="http://www.w3.org/1999/xlink" x="0px" y="0px"
	 width="18px" height="18px" viewBox="-390 392 18 18" enable-background="new -390 392 18 18" xml:space="preserve">
<path fill="#C93C64" d="M-390,392v18h18v-18H-390z M-376.276,401.282c0,0-0.668,3.405-4.43,4.073
	c-4.678,0.832-6.475-2.172-6.475-2.172s0.991,0.654,2.023,0.689c1.234,0.042,2.165-0.751,2.347-1.086
	c-1.153-0.062-0.789-0.835-0.425-1.107c-1.194-0.083-1.234-0.48-1.376-0.709c-0.132-0.217,0.426-0.335,0.729-0.482
	c0,0-0.614-0.163-0.922-0.469c-0.299-0.3-0.373-0.783-0.373-0.783s0.142-0.126,0.668-0.126c-0.809-0.355-1.093-1.441-0.991-1.65
	c2.205,0.543,4.168,2.214,4.168,2.214s0.522-1.284,0.828-1.838c0.486-0.878,1.133-1.232,1.133-1.232l-0.019,0.209
	c0,0,0.545-0.272,0.828-0.314c-0.182,0.209-0.202,0.355-0.202,0.355s0.668-0.418,0.749-0.063c0.081,0.355-0.89,0.543-0.89,0.543
	s1.012-0.021,1.72,0.752c0.708,0.772,0.89,1.755,0.89,1.755s0.809,0.083,1.437,0c-0.081,0.583-1.174,0.668-1.174,0.668
	s0.647,0.146,1.214,0.146C-375.082,401.303-376.276,401.282-376.276,401.282z"/>
</svg>
