<?xml version="1.0" encoding="utf-8"?>
<!-- Generator: Adobe Illustrator 18.1.1, SVG Export Plug-In . SVG Version: 6.00 Build 0)  -->
<svg version="1.1" id="Ebene_1" xmlns="http://www.w3.org/2000/svg" xmlns:xlink="http://www.w3.org/1999/xlink" x="0px" y="0px"
	 width="27px" height="27px" viewBox="-386 387 27 27" enable-background="new -386 387 27 27" xml:space="preserve">
<g id="Kompass">
	<path fill="#FEFEFE" d="M-375.198,397.279l-0.794,0.841l-7.566,14.062l13.886-8.406l0.794-0.841l7.566-14.062L-375.198,397.279z
		 M-379.91,408.359l5.084-9.449l1.254,1.123c0.19-0.211,0.462-0.345,0.768-0.345c0.573,0,1.038,0.465,1.038,1.038
		c0,0.265-0.102,0.503-0.265,0.687l1.451,1.299L-379.91,408.359z"/>
	<path fill="#FEFEFE" d="M-372.803,401.763c0.309,0,0.583-0.137,0.773-0.351l-1.541-1.379c-0.166,0.184-0.27,0.425-0.27,0.693
		C-373.841,401.298-373.376,401.763-372.803,401.763z"/>
	<path fill="#FEFEFE" d="M-361.267,399.682c-0.415-5.549-4.861-9.962-10.422-10.33l0.001-2.344l-1.633-0.008v2.359
		c-2.496,0.195-4.757,1.206-6.527,2.768l-1.16-1.161l-1.029,1.018l1.168,1.168c-1.553,1.774-2.552,4.036-2.739,6.531l-2.384-0.001
		l-0.008,1.621h2.388c0.38,5.536,4.769,9.961,10.291,10.393V414h1.631l0.001-2.297c2.532-0.168,4.831-1.171,6.627-2.744l1.073,1.073
		l1.023-1.023l-1.071-1.072c1.584-1.795,2.599-4.096,2.773-6.634h2.263v-1.62L-361.267,399.682z M-372.438,409.662
		c-5.045,0-9.135-4.09-9.135-9.135c0-5.045,4.09-9.135,9.135-9.135c5.045,0,9.135,4.09,9.135,9.135
		C-363.303,405.573-367.393,409.662-372.438,409.662z"/>
</g>
</svg>
