<?xml version="1.0" encoding="utf-8"?>
<!-- Generator: Adobe Illustrator 18.1.1, SVG Export Plug-In . SVG Version: 6.00 Build 0)  -->
<svg version="1.1" id="Ebene_1" xmlns="http://www.w3.org/2000/svg" xmlns:xlink="http://www.w3.org/1999/xlink" x="0px" y="0px"
	 width="60px" height="71px" viewBox="-369 365 60 71" enable-background="new -369 365 60 71" xml:space="preserve">
<g>
	<ellipse fill="#231419" cx="-326.854" cy="398.819" rx="13.371" ry="10.32"/>
	<ellipse fill="#28181D" cx="-327.477" cy="406.972" rx="10.93" ry="11.767"/>
	<ellipse fill="#2A2023" cx="-332.802" cy="423.527" rx="10.088" ry="10.922"/>
	<ellipse fill="#312327" cx="-348.492" cy="421.012" rx="10.085" ry="9.518"/>
	<ellipse fill="#57192B" cx="-328.792" cy="406.772" rx="9.616" ry="9.652"/>
	<ellipse fill="#802B43" cx="-342.328" cy="427.37" rx="10.088" ry="8.63"/>
	<ellipse fill="#4B1F2B" cx="-344.849" cy="416.422" rx="10.368" ry="10.938"/>
	<ellipse fill="#23171A" cx="-356.391" cy="400.493" rx="9.808" ry="10.322"/>
	<ellipse fill="#161112" cx="-350.767" cy="375.967" rx="12.065" ry="10.32"/>
	<ellipse fill="#351B23" cx="-345.083" cy="376.246" rx="11.586" ry="10.042"/>
	<ellipse fill="#842D46" cx="-359.307" cy="372.264" rx="6.891" ry="7.264"/>
	<ellipse fill="#2B1B20" cx="-326.109" cy="379.307" rx="12.065" ry="10.32"/>
	<ellipse fill="#321A21" cx="-321.065" cy="385.442" rx="12.065" ry="10.32"/>
	<ellipse fill="#4F182A" cx="-345.184" cy="389.901" rx="9.808" ry="10.32"/>
	<ellipse fill="#AC3254" cx="-342.048" cy="408.06" rx="10.368" ry="10.94"/>
	<ellipse fill="#AC3254" cx="-360.708" cy="389.551" rx="8.292" ry="9.484"/>
	<ellipse fill="#611F32" cx="-334.998" cy="385.163" rx="11.584" ry="10.042"/>
	<polygon fill="#FFFFFF" points="-330.567,395.367 -340.567,389.021 -350.567,394.833 -349.702,396.68 -341.567,391.764 
		-341.567,411.021 -339.567,411.021 -339.567,391.811 -331.581,397.013 	"/>
</g>
</svg>
