<?xml version="1.0" encoding="utf-8"?>
<!-- Generator: Adobe Illustrator 18.1.1, SVG Export Plug-In . SVG Version: 6.00 Build 0)  -->
<svg version="1.1" id="Logo" opacity="0.7" xmlns="http://www.w3.org/2000/svg" xmlns:xlink="http://www.w3.org/1999/xlink" x="0px"
	 y="0px" width="312px" height="77px" viewBox="0 0 312 77" enable-background="new 0 0 312 77" xml:space="preserve">
<g>
	<g>
		<path fill="#1C1919" d="M5.081,73.282l3.57-9.542h1.511L5.081,77L0,63.74h1.511L5.081,73.282z"/>
		<path fill="#1C1919" d="M23.442,70.013c0,3.602-2.955,6.456-6.525,6.456c-3.57,0-6.525-2.854-6.525-6.456
			c0-3.584,2.955-6.489,6.525-6.489C20.486,63.524,23.442,66.429,23.442,70.013z M11.786,69.997c0,2.821,2.291,5.178,5.131,5.178
			c2.839,0,5.131-2.357,5.131-5.178c0-2.838-2.258-5.178-5.131-5.178C14.044,64.818,11.786,67.159,11.786,69.997z"/>
		<path fill="#1C1919" d="M24.584,63.209l9.763,10.223V63.74h1.395v13.077l-9.763-10.206v9.642h-1.395V63.209z"/>
		<path fill="#1C1919" d="M46.114,76.253h-1.395V65.034h-3.022V63.74h7.472v1.294h-3.055V76.253z"/>
		<path fill="#1C1919" d="M56.257,66.179c-0.498-0.863-1.096-1.361-2.159-1.361c-1.112,0-2.076,0.797-2.076,1.942
			c0,1.079,1.113,1.577,1.96,1.959l0.83,0.365c1.627,0.714,3.005,1.527,3.005,3.518c0,2.191-1.76,3.867-3.935,3.867
			c-2.009,0-3.503-1.294-3.902-3.236l1.361-0.382c0.183,1.277,1.162,2.323,2.507,2.323c1.345,0,2.574-1.029,2.574-2.44
			c0-1.461-1.146-1.959-2.308-2.49l-0.764-0.331c-1.461-0.664-2.723-1.41-2.723-3.203c0-1.942,1.644-3.186,3.503-3.186
			c1.395,0,2.574,0.714,3.238,1.942L56.257,66.179z"/>
		<path fill="#1C1919" d="M69.388,66.478c-0.996-1.029-2.374-1.66-3.819-1.66c-2.789,0-5.048,2.423-5.048,5.178
			s2.275,5.178,5.081,5.178c1.411,0,2.79-0.664,3.786-1.659v1.726c-1.079,0.78-2.408,1.228-3.736,1.228
			c-3.537,0-6.526-2.871-6.526-6.422c0-3.585,2.939-6.522,6.526-6.522c1.395,0,2.623,0.399,3.736,1.229V66.478z"/>
		<path fill="#1C1919" d="M79.596,68.818V63.74h1.395v12.512h-1.395v-6.14h-6.409v6.14h-1.395V63.74h1.395v5.078H79.596z"/>
		<path fill="#1C1919" d="M85.438,72.702l-1.511,3.551h-1.528l5.778-13.11l5.629,13.11h-1.544l-1.478-3.551H85.438z M88.144,66.395
			l-2.142,5.012h4.234L88.144,66.395z"/>
		<path fill="#1C1919" d="M96.542,76.253h-1.395V63.74h1.81c2.374,0,4.583,0.63,4.583,3.452c0,1.924-1.212,3.286-3.138,3.451
			l3.985,5.609h-1.71l-3.786-5.492h-0.349V76.253z M96.542,69.532h0.432c1.578,0,3.172-0.299,3.172-2.24
			c0-2.058-1.511-2.257-3.188-2.257h-0.415V69.532z"/>
		<path fill="#1C1919" d="M104.21,63.209l9.763,10.223V63.74h1.395v13.077l-9.763-10.206v9.642h-1.395V63.209z"/>
		<path fill="#1C1919" d="M117.955,63.74h6.492v1.294h-5.098v3.717h4.948v1.295h-4.948v4.912h5.098v1.294h-6.492V63.74z"/>
		<path fill="#1C1919" d="M128.197,76.253h-1.395V63.74h1.81c2.374,0,4.583,0.63,4.583,3.452c0,1.924-1.212,3.286-3.138,3.451
			l3.985,5.609h-1.71l-3.786-5.492h-0.349V76.253z M128.197,69.532h0.432c1.578,0,3.172-0.299,3.172-2.24
			c0-2.058-1.511-2.257-3.188-2.257h-0.415V69.532z"/>
	</g>
	<g>
		<path fill="#1C1919" d="M151.634,66.265c-0.498-0.863-1.096-1.361-2.159-1.361c-1.112,0-2.076,0.796-2.076,1.942
			c0,1.079,1.113,1.577,1.96,1.958l0.83,0.365c1.627,0.713,3.005,1.526,3.005,3.518c0,2.191-1.76,3.867-3.935,3.867
			c-2.009,0-3.504-1.295-3.902-3.237l1.361-0.382c0.183,1.278,1.162,2.324,2.507,2.324c1.345,0,2.574-1.029,2.574-2.44
			c0-1.46-1.146-1.958-2.308-2.489l-0.764-0.332c-1.461-0.664-2.723-1.41-2.723-3.202c0-1.942,1.644-3.186,3.504-3.186
			c1.395,0,2.574,0.713,3.238,1.942L151.634,66.265z"/>
		<path fill="#1C1919" d="M164.783,66.563c-0.996-1.029-2.374-1.659-3.819-1.659c-2.79,0-5.048,2.423-5.048,5.178
			c0,2.755,2.275,5.178,5.081,5.178c1.412,0,2.79-0.664,3.786-1.659v1.726c-1.079,0.78-2.408,1.229-3.736,1.229
			c-3.536,0-6.525-2.871-6.525-6.423c0-3.584,2.939-6.522,6.525-6.522c1.395,0,2.623,0.398,3.736,1.228V66.563z"/>
		<path fill="#1C1919" d="M175.009,68.904v-5.078h1.395v12.513h-1.395v-6.141h-6.41v6.141h-1.394V63.825h1.394v5.078H175.009z"/>
		<path fill="#1C1919" d="M180.386,75.044h3.454v1.294h-4.848V63.825h1.394V75.044z"/>
		<path fill="#1C1919" d="M197.637,70.099c0,3.601-2.956,6.456-6.525,6.456c-3.57,0-6.526-2.855-6.526-6.456
			c0-3.585,2.956-6.489,6.526-6.489C194.681,63.61,197.637,66.514,197.637,70.099z M185.981,70.082c0,2.821,2.291,5.178,5.131,5.178
			c2.839,0,5.13-2.356,5.13-5.178c0-2.837-2.258-5.178-5.13-5.178C188.239,64.904,185.981,67.244,185.981,70.082z"/>
		<path fill="#1C1919" d="M205.206,66.265c-0.498-0.863-1.096-1.361-2.158-1.361c-1.113,0-2.076,0.796-2.076,1.942
			c0,1.079,1.112,1.577,1.959,1.958l0.83,0.365c1.627,0.713,3.005,1.526,3.005,3.518c0,2.191-1.76,3.867-3.935,3.867
			c-2.009,0-3.504-1.295-3.902-3.237l1.362-0.382c0.183,1.278,1.162,2.324,2.507,2.324c1.345,0,2.574-1.029,2.574-2.44
			c0-1.46-1.145-1.958-2.308-2.489l-0.764-0.332c-1.461-0.664-2.723-1.41-2.723-3.202c0-1.942,1.644-3.186,3.504-3.186
			c1.395,0,2.574,0.713,3.238,1.942L205.206,66.265z"/>
		<path fill="#1C1919" d="M214.486,66.265c-0.498-0.863-1.096-1.361-2.158-1.361c-1.113,0-2.076,0.796-2.076,1.942
			c0,1.079,1.112,1.577,1.959,1.958l0.83,0.365c1.627,0.713,3.005,1.526,3.005,3.518c0,2.191-1.76,3.867-3.935,3.867
			c-2.009,0-3.504-1.295-3.902-3.237l1.362-0.382c0.183,1.278,1.162,2.324,2.507,2.324c1.345,0,2.574-1.029,2.574-2.44
			c0-1.46-1.145-1.958-2.308-2.489l-0.764-0.332c-1.461-0.664-2.723-1.41-2.723-3.202c0-1.942,1.644-3.186,3.504-3.186
			c1.395,0,2.574,0.713,3.238,1.942L214.486,66.265z"/>
		<path fill="#1C1919" d="M224.595,76.338h-1.394V63.825h1.81c2.374,0,4.583,0.631,4.583,3.452c0,1.925-1.212,3.286-3.138,3.452
			l3.985,5.609h-1.71l-3.785-5.493h-0.349V76.338z M224.595,69.618h0.432c1.577,0,3.171-0.299,3.171-2.241
			c0-2.058-1.511-2.256-3.188-2.256h-0.416V69.618z"/>
		<path fill="#1C1919" d="M232.198,63.825h6.492v1.295h-5.097v3.717h4.947v1.294h-4.947v4.913h5.097v1.294h-6.492V63.825z"/>
		<path fill="#1C1919" d="M242.491,76.338h-1.395V63.825h1.395V76.338z"/>
		<path fill="#1C1919" d="M254.578,66.563c-0.996-1.029-2.374-1.659-3.819-1.659c-2.789,0-5.048,2.423-5.048,5.178
			c0,2.755,2.275,5.178,5.081,5.178c1.411,0,2.789-0.664,3.785-1.659v1.726c-1.079,0.78-2.407,1.229-3.736,1.229
			c-3.537,0-6.526-2.871-6.526-6.423c0-3.584,2.939-6.522,6.526-6.522c1.395,0,2.623,0.398,3.736,1.228V66.563z"/>
		<path fill="#1C1919" d="M264.804,68.904v-5.078h1.395v12.513h-1.395v-6.141h-6.41v6.141H257V63.825h1.394v5.078H264.804z"/>
		<path fill="#1C1919" d="M268.786,63.825h6.492v1.295h-5.097v3.717h4.948v1.294h-4.948v4.913h5.097v1.294h-6.492V63.825z"/>
		<path fill="#1C1919" d="M277.734,63.295l9.763,10.223v-9.692h1.395v13.077l-9.763-10.206v9.642h-1.395V63.295z"/>
		<path fill="#1C1919" d="M293.373,72.787l-1.511,3.551h-1.528l5.779-13.11l5.629,13.11h-1.544l-1.478-3.551H293.373z
			 M296.079,66.481l-2.142,5.012h4.234L296.079,66.481z"/>
		<path fill="#1C1919" d="M304.462,71.277c0,0.929-0.033,1.991,0.548,2.788c0.548,0.764,1.611,1.195,2.524,1.195
			c0.897,0,1.876-0.415,2.458-1.112c0.664-0.796,0.614-1.892,0.614-2.871v-7.452H312v7.833c0,1.361-0.099,2.44-1.096,3.468
			c-0.863,0.93-2.109,1.428-3.371,1.428c-1.179,0-2.391-0.448-3.238-1.278c-1.096-1.045-1.229-2.191-1.229-3.618v-7.833h1.395
			V71.277z"/>
	</g>
</g>
<g>
	<g>
		<path fill="#1A1A1A" d="M187.602,5.727c-0.029-1.07-0.792-3.068-3.525-3.068c-2.636,0-3.426,2.018-3.475,3.067l-0.949-0.004
			l-0.001,0.971l0.95,0.001v3.434h0.971V6.693l5.061,0.004V10.1h0.971V6.698l1.034,0.001l0.001-0.971L187.602,5.727z M184.077,3.63
			c2.294,0,2.529,1.707,2.554,2.096l-5.058-0.004C181.583,5.555,181.753,3.63,184.077,3.63z"/>
		<path fill="#1A1A1A" d="M184.087,8.169"/>
		<polygon fill="#1A1A1A" points="184.563,13.036 183.593,13.036 183.593,9.881 184.563,9.881 184.563,13.036 		"/>
		<polygon fill="#1A1A1A" points="199.958,32.329 198.987,32.329 198.987,29.733 199.958,29.733 199.958,32.329 		"/>
		<polygon fill="#1A1A1A" points="169.483,26.373 168.512,26.373 168.512,24.408 169.483,24.408 169.483,26.373 		"/>
		<polygon fill="#1A1A1A" points="200.007,26.484 199.035,26.484 199.035,24.519 200.007,24.519 200.007,26.484 		"/>
		<polygon fill="#1A1A1A" points="192.303,26.391 191.333,26.391 191.333,24.426 192.303,24.426 192.303,26.391 		"/>
		<polygon fill="#1A1A1A" points="192.298,32.28 191.327,32.28 191.327,29.842 192.298,29.842 192.298,32.28 		"/>
		<polygon fill="#1A1A1A" points="184.658,26.484 183.687,26.484 183.687,24.519 184.658,24.519 184.658,26.484 		"/>
		<polygon fill="#1A1A1A" points="184.647,34.409 183.675,34.409 183.675,29.842 184.647,29.842 184.647,34.409 		"/>
		<polygon fill="#1A1A1A" points="177.001,26.429 176.03,26.429 176.03,24.464 177.001,24.464 177.001,26.429 		"/>
		<polygon fill="#1A1A1A" points="177.033,32.286 176.063,32.286 176.063,29.848 177.033,29.848 177.033,32.286 		"/>
		<polygon fill="#1A1A1A" points="169.482,32.28 168.511,32.28 168.511,29.764 169.482,29.764 169.482,32.28 		"/>
		<polygon fill="#1A1A1A" points="216.021,22.473 215.05,22.473 215.05,20.508 216.021,20.508 216.021,22.473 		"/>
		<polygon fill="#1A1A1A" points="219.858,26.299 218.887,26.299 218.887,24.334 219.858,24.334 219.858,26.299 		"/>
		<polygon fill="#1A1A1A" points="186.001,29.206 182.269,29.206 182.269,28.236 186.001,28.236 186.001,29.206 		"/>
		<polygon fill="#1A1A1A" points="193.673,29.243 189.938,29.243 189.938,28.272 193.673,28.272 193.673,29.243 		"/>
		<polygon fill="#1A1A1A" points="178.328,29.238 174.595,29.238 174.595,28.267 178.328,28.267 178.328,29.238 		"/>
		<polygon fill="#1A1A1A" points="206.458,34.177 190.148,34.177 190.148,33.206 206.458,33.206 206.458,34.177 		"/>
		<polygon fill="#1A1A1A" points="178.211,34.232 166.526,34.232 166.526,33.261 178.211,33.261 178.211,34.232 		"/>
		<polygon fill="#1A1A1A" points="169.563,40.07 168.592,40.07 168.592,37.711 169.563,37.711 169.563,40.07 		"/>
		<polygon fill="#1A1A1A" points="190.731,41.912 187.704,41.912 187.704,40.942 190.731,40.942 190.731,41.912 		"/>
		<path fill="#1A1A1A" d="M169.551,36.263c0-0.009,0.005-0.017,0.005-0.026v-0.018c0-0.268-0.217-0.476-0.486-0.476
			c-0.268,0-0.485,0.227-0.485,0.495c0,0.011,0.005,0.02,0.006,0.031v0.627h0.971v-0.632H169.551z"/>
		<polygon fill="#1A1A1A" points="177.051,40.04 176.079,40.04 176.079,37.672 177.051,37.672 177.051,40.04 		"/>
		<path fill="#1A1A1A" d="M177.037,36.225c0.001-0.01,0.005-0.017,0.005-0.027V36.18c0-0.268-0.216-0.476-0.485-0.476
			c-0.268,0-0.486,0.227-0.486,0.495c0,0.011,0.005,0.02,0.007,0.031v0.667h0.971v-0.671H177.037z"/>
		<polygon fill="#1A1A1A" points="192.248,40.065 191.276,40.065 191.276,37.667 192.248,37.667 192.248,40.065 		"/>
		<path fill="#1A1A1A" d="M192.236,36.258c0-0.009,0.005-0.017,0.005-0.027v-0.018c0-0.268-0.217-0.476-0.486-0.476
			c-0.269,0-0.485,0.226-0.485,0.494c0,0.01,0.005,0.019,0.005,0.029v0.644h0.971v-0.647H192.236z"/>
		<polygon fill="#1A1A1A" points="199.931,40.098 198.959,40.098 198.959,37.668 199.931,37.668 199.931,40.098 		"/>
		<path fill="#1A1A1A" d="M199.917,36.291c0.001-0.009,0.005-0.017,0.005-0.026v-0.018c0-0.268-0.217-0.476-0.485-0.476
			c-0.269,0-0.487,0.226-0.487,0.495c0,0.01,0.005,0.019,0.007,0.029v0.613h0.971v-0.616H199.917z"/>
		<polygon fill="#1A1A1A" points="180.654,41.894 177.625,41.894 177.625,40.923 180.654,40.923 180.654,41.894 		"/>
		<polygon fill="#1A1A1A" points="200.376,41.924 197.349,41.924 197.349,40.954 200.376,40.954 200.376,41.924 		"/>
		<polygon fill="#1A1A1A" points="171.26,41.895 168.231,41.895 168.231,40.924 171.26,40.924 171.26,41.895 		"/>
		<path fill="#1A1A1A" d="M183.536,42.894l-0.971-0.002l0.009-4.209c0.021-0.607,0.485-1.488,1.678-1.488
			c1.201,0,1.65,0.883,1.66,1.478v4.22h-0.971v-4.212c-0.009-0.183-0.112-0.515-0.689-0.515c-0.604,0-0.696,0.379-0.706,0.542
			L183.536,42.894L183.536,42.894z"/>
		<polygon fill="#1A1A1A" points="187.397,44.364 180.965,44.364 180.965,43.393 187.397,43.393 187.397,44.364 		"/>
		<polygon fill="#1A1A1A" points="177.538,43.382 171.106,43.382 171.106,42.412 177.538,42.412 177.538,43.382 		"/>
		<polygon fill="#1A1A1A" points="197.251,43.42 190.74,43.42 190.74,42.449 197.251,42.449 197.251,43.42 		"/>
		<polygon fill="#1A1A1A" points="179.529,46.582 179.529,42.437 178.558,42.437 178.558,46.582 171.202,46.582 171.202,47.553 
			180.535,47.553 180.535,46.582 		"/>
		<polygon fill="#1A1A1A" points="170.085,42.419 169.115,42.418 169.11,46.597 160.717,46.597 160.717,47.567 169.179,47.567 
			169.179,47.531 170.08,47.532 		"/>
		<polygon fill="#1A1A1A" points="189.666,46.582 189.666,42.433 188.694,42.433 188.694,46.582 187.693,46.582 187.693,47.553 
			197.339,47.553 197.339,46.582 		"/>
		<polygon fill="#1A1A1A" points="189.216,35.008 189.216,32.647 189.773,32.647 189.773,31.676 185.648,31.676 185.648,32.647 
			188.245,32.647 188.245,35.008 180.104,35.008 180.104,32.672 182.611,32.672 182.611,31.702 178.564,31.702 178.564,32.672 
			179.132,32.672 179.132,35.008 178.547,35.008 178.547,35.979 189.84,35.979 189.84,35.008 		"/>
		<path fill="#1A1A1A" d="M234.352,13.883c-2.009-0.725-1.772-2.338-1.761-2.402l0.008-0.047l-0.001-0.048
			c-0.002-0.119-0.046-1.178-0.807-1.485c-0.584-0.235-1.291,0.073-2.179,0.957c-2.744,2.981-2.148,5.811-2.126,5.912
			c0.007,0.031,0.528,2.931-0.048,4.905h-2.953v0.971h2.584c-0.787,1.965-1.461,4.237,0.264,7.62l0.866-0.44
			c-1.684-3.302-0.834-5.362,0.007-7.394c0.897-2.171,0.263-5.689,0.232-5.856c-0.005-0.024-0.515-2.448,1.874-5.044
			c0.82-0.816,1.113-0.732,1.116-0.73c0.085,0.034,0.181,0.317,0.197,0.566c-0.13,0.875,0.208,2.64,2.424,3.438
			c3.201,0.943,2.442,8.355,1.879,11.132l0.952,0.193C236.971,25.687,239.03,15.259,234.352,13.883z"/>
		<path fill="#1A1A1A" d="M238.952,36.359l-0.9-0.366c0.042-0.103,1.008-2.589-1.173-3.824c-2.948-1.298-4.888,1.561-4.969,1.684
			l-0.809-0.536c0.842-1.272,3.228-3.331,6.214-2.013C239.701,32.651,239.425,35.198,238.952,36.359L238.952,36.359z"/>
		<path fill="#1A1A1A" d="M226.222,44.665c-2.602-1.258-6.075,0.768-6.22,0.853l0.495,0.835c0.032-0.019,3.166-1.849,5.268-0.833
			c1.725,1.008,2.186,1.976,1.892,3.975c-0.713,2.44-2.22,3.461-2.727,3.743h-8.367v0.971h8.548v-0.066l0.032,0.075
			c0.1-0.044,2.481-1.104,3.455-4.486l0.013-0.061C228.976,47.254,228.338,45.902,226.222,44.665z"/>
		<path fill="#1A1A1A" d="M240.425,39.022c-0.747-0.92-1.899-1.413-3.465-1.464c-1.327,0.066-2.401,0.449-3.24,0.917
			c-0.148-1.505-1.067-3.79-3.873-4.269c-4.695-0.681-7.15,3.554-7.175,3.597l0.845,0.479c0.021-0.037,2.141-3.703,6.178-3.117
			c3.103,0.529,3.079,3.685,3.077,3.818l0.152,0.004c-0.969,0.718-1.459,1.445-1.498,1.503l0.813,0.532
			c0.062-0.096,1.583-2.336,4.728-2.495c1.231,0.042,2.141,0.415,2.704,1.107c0.627,0.771,0.824,1.96,0.568,3.437
			c-0.426,2.458-3.214,4.612-3.824,5.058h-6.344v0.97h6.648l0.124-0.085c0.155-0.105,3.807-2.621,4.354-5.777
			C241.502,41.475,241.236,40.018,240.425,39.022z"/>
		<path fill="#1A1A1A" d="M210.826,43.515c-0.976,0.809-1.61,1.939-1.91,3.36c-1.449,0.229-6.146,1.386-9.352,6.934l0.84,0.486
			c2.764-4.782,6.785-6.068,8.354-6.397c-0.027,0.297-0.044,0.605-0.046,0.924l0.972,0.006c0.013-2.071,0.606-3.606,1.762-4.565
			c1.13-0.936,2.868-1.302,4.647-0.977l0.174-0.955C215.279,42.149,212.771,41.905,210.826,43.515z"/>
		<path fill="#1A1A1A" d="M222.827,39.191c-2.634-1.582-4.999-0.312-6.145,0.553c-0.432-0.492-2.611-2.809-5.574-3.032
			c-1.772-0.13-3.467,0.513-5.07,1.956c-1.032,1.152-1.414,2.467-1.484,3.674h-4.171v0.971h4.179
			c0.057,0.802,0.223,1.514,0.382,2.031c-1.016,0.452-2.74,1.47-4.621,3.686l0.741,0.627c2.673-3.147,4.999-3.694,5.02-3.699
			l-0.021-0.099l0.085-0.039c-0.004-0.009-0.103-0.234-0.22-0.596l-0.045-0.216c-0.003,0.001-0.013,0.004-0.019,0.005
			c-0.376-1.272-0.811-3.796,0.86-5.66c1.359-1.222,2.81-1.786,4.304-1.674c2.83,0.209,4.964,2.749,4.984,2.775l0.012-0.009
			l0.642,0.59c0.026-0.028,2.646-2.823,5.645-1.021c1.791,1.161,1.212,3.014,1.188,3.09l0.92,0.309
			C224.724,42.509,224.786,40.462,222.827,39.191z"/>
		<path fill="#1A1A1A" d="M138.035,21.532l-0.968-0.079c0.211-2.565,2.408-4.748,5.111-5.079c2.064-0.252,4.678,0.675,5.812,4.036
			l-0.92,0.31c-0.805-2.386-2.588-3.647-4.774-3.383C140.378,17.571,138.233,19.122,138.035,21.532L138.035,21.532z"/>
		<path fill="#1A1A1A" d="M137.68,32.481c-0.376,0-0.745-0.048-1.099-0.146l0.258-0.935c1.052,0.29,2.302,0.005,3.34-0.763
			c0.996-0.736,1.606-1.776,1.634-2.782c0.031-1.094-0.329-2.089-1.012-2.801c-0.748-0.78-1.875-1.202-3.256-1.222
			c-3.953,0.329-3.979,3.37-3.979,3.5l-0.971,0.006c0-0.041,0.03-4.071,4.917-4.475c1.694,0.021,3.058,0.547,3.99,1.518
			c0.865,0.901,1.32,2.144,1.283,3.5c-0.036,1.302-0.794,2.624-2.028,3.536C139.818,32.112,138.725,32.481,137.68,32.481
			L137.68,32.481z"/>
		<path fill="#1A1A1A" d="M142.374,49.011c-0.222,0-2.677-0.064-3.831-2.874c-1.186-2.885,0.86-4.839,0.948-4.921l0.662,0.71
			l-0.331-0.355l0.333,0.353c-0.068,0.064-1.639,1.591-0.713,3.844c0.934,2.274,2.904,2.263,2.931,2.273l0.015,0.969
			C142.384,49.011,142.38,49.011,142.374,49.011L142.374,49.011z"/>
		<path fill="#1A1A1A" d="M139.294,54.838c-0.66,0-1.39-0.144-2.083-0.581c-0.499-0.315-2.128-1.554-2.128-4.27
			c0-2.66,2.609-3.765,2.72-3.812l0.371,0.898l-0.185-0.449l0.186,0.448c-0.087,0.036-2.121,0.911-2.121,2.914
			c0,2.22,1.282,3.201,1.675,3.45c1.501,0.948,3.374,0.022,3.392,0.012l0.441,0.865C141.501,54.345,140.517,54.838,139.294,54.838
			L139.294,54.838z"/>
		<path fill="#1A1A1A" d="M129.489,37.22c-0.037-0.002-3.722-0.279-4.253-4.245c-0.191-3.657,2.471-5,2.584-5.056
			c0.057-0.036,2.312-1.363,4.746,0.064c2.458,1.444,2.085,4.776,2.068,4.917l-0.964-0.116c0.003-0.029,0.31-2.846-1.596-3.965
			c-1.941-1.139-3.772-0.06-3.79-0.049c-0.126,0.064-2.235,1.156-2.082,4.116c0.423,3.146,3.229,3.358,3.348,3.366L129.489,37.22
			L129.489,37.22z"/>
		<path fill="#1A1A1A" d="M160.456,40.081c-3.15,0-4.257-2.645-4.4-4.097l0.966-0.097c0.014,0.14,0.406,3.424,3.74,3.213
			c1.064-0.066,1.867-0.425,2.386-1.067c0.946-1.169,0.698-2.906,0.696-2.923l0.96-0.144c0.013,0.088,0.311,2.179-0.9,3.678
			c-0.698,0.862-1.734,1.341-3.081,1.425C160.697,40.078,160.576,40.081,160.456,40.081L160.456,40.081z"/>
		<path fill="#1A1A1A" d="M153.23,24.324c-0.696-1.451-2.185-3.052-4.78-2.911c-3.481,0.177-4.441,3.223-4.45,3.254l0.929,0.283
			c0.031-0.099,0.785-2.425,3.571-2.567c3.277-0.162,4.097,2.906,4.182,3.256c0.162,0.682,0.143,2.092-0.579,3.179
			c-0.534,0.805-1.37,1.307-2.485,1.493c-3.183,0.529-4.357-2.125-4.405-2.236l-0.895,0.376c0.013,0.032,1.258,2.902,4.48,2.901
			c0.308,0,0.634-0.026,0.979-0.084c1.391-0.231,2.446-0.875,3.136-1.913c0.962-1.45,0.888-3.212,0.714-3.941
			c-0.006-0.026-0.015-0.055-0.023-0.082c1.445-1.638,3.441-1.076,4.249-0.748l0.367-0.899
			C156.33,22.916,154.518,23.162,153.23,24.324z"/>
		<path fill="#1A1A1A" d="M132.615,10.784l-5.395,0.965c-0.012-0.006-0.024-0.014-0.037-0.02l-0.013,0.029l-0.421,0.075l0.109,0.611
			l-0.077,0.169c0.039,0.017,0.079,0.042,0.119,0.066l0.02,0.109l0.115-0.021c0.153,0.109,0.321,0.251,0.526,0.427
			c0.584,0.502,1.384,1.188,2.827,1.935c-3.614,0.408-5.983,1.957-7.777,3.134c-0.796,0.522-1.484,0.973-2.142,1.25
			c-2.367,0.996-3.938,0.847-3.952,0.846c0,0-0.267-0.003-0.272-0.008l-0.67,0.702c0.145,0.139,3.593,3.41,6.087,4.498
			c1.039,0.454,2.47,0.59,3.815,0.59c1.949,0,3.716-0.286,3.839-0.307l-0.158-0.957c-0.048,0.007-4.825,0.78-7.107-0.215
			c-1.53-0.668-3.527-2.294-4.735-3.347c0.774-0.059,1.999-0.263,3.531-0.908c0.74-0.312,1.462-0.785,2.298-1.334
			c2.091-1.372,4.693-3.08,9.087-3.08v-0.037c0.083,0.033,0.161,0.065,0.246,0.097l0.347-0.907
			c-2.591-0.989-3.763-1.947-4.533-2.606l4.493-0.804c7.382-1.319,10.007,3.725,10.114,3.94l0.871-0.43
			C143.742,15.19,140.738,9.33,132.615,10.784z"/>
		<path fill="#1A1A1A" d="M116.534,30.135c-2.225,1.539-3.161,5.117-3.846,7.729c-0.268,1.026-0.5,1.911-0.735,2.373l0.024,0.012
			c-0.044,0.055-0.091,0.108-0.13,0.165l0.8,0.55c0.356-0.518,1.157-0.953,2.083-1.459c0.985-0.536,2.102-1.145,3.14-2.071
			l-0.647-0.724c-0.955,0.851-2.019,1.431-2.958,1.943c-0.326,0.178-0.634,0.348-0.924,0.519c0.092-0.327,0.185-0.675,0.286-1.062
			c0.645-2.465,1.529-5.843,3.434-7.161c3.414-2.069,7.869-1.743,7.914-1.74l0.078-0.968
			C124.857,28.226,120.245,27.884,116.534,30.135z"/>
		<path fill="#1A1A1A" d="M121.983,45.401l-0.316-0.919c-0.678,0.232-1.924,0.512-3.367,0.835c-2.345,0.525-5.172,1.159-6.969,1.918
			c0.975-2.933,3.761-5.086,5.87-6.715c0.985-0.76,1.763-1.362,2.177-1.906l-0.774-0.587c-0.335,0.441-1.105,1.037-1.996,1.725
			c-2.412,1.863-6.058,4.679-6.547,8.721l0.964,0.116c0.006-0.048,0.018-0.095,0.025-0.144c1.534-0.853,4.815-1.588,7.463-2.181
			C119.983,45.934,121.253,45.651,121.983,45.401z"/>
		<path fill="#1A1A1A" d="M150.565,20.586l-0.954-0.182c0.047-0.246,1.173-6.051,3.33-9.093l0.792,0.561
			C151.699,14.742,150.577,20.528,150.565,20.586L150.565,20.586z"/>
		<polygon fill="#1A1A1A" points="199.368,46.582 199.368,42.409 198.396,42.409 198.396,47.56 199.368,47.56 199.368,47.553 
			200.623,47.553 200.623,46.582 		"/>
		<path fill="#1A1A1A" d="M227.43,31.29c-1.01-1.404-2.905-1.167-3.9-0.921c-0.009-0.012-0.019-0.025-0.027-0.037h0.123v-8.386
			l-8.129-5.964l-6.741,5.086l-10.323-4.758l-0.095,0.206v-0.256h-3.4l0.005-2.186l-0.971-0.002l-0.004,2.188h-4.835v-1.747h0.753
			v-0.971h-0.725V11.66h0.759v-0.971h-4.361v0.971h2.63v1.7h-0.028v0.18h-8.253V11.66h2.653v-0.971h-4.36v0.971h0.736v1.881h-0.736
			v0.971h0.748v1.668h-4.561v-2.12h-0.971v2.12h-3.646l-0.002-0.004l-10.983,5.503l0.286,0.571v2.748h0.131
			c-1.579,1.136-2.074,2.939-2.081,2.967l0.941,0.243c0.037-0.143,0.957-3.495,4.644-3.114c1.193,0.124,2.109,0.597,2.724,1.405
			c0.909,1.194,0.9,2.736,0.826,3.182c-0.385,2.308-1.705,3.531-4.036,3.735c-3.592,0.316-4.193-2.911-4.217-3.049l-0.958,0.161
			c0.003,0.016,0.125,0.672,0.536,1.438l-0.147-0.235c-0.016,0.011-1.711,1.054-2.964,0.323l-0.05,0.086
			c-0.321-0.583-0.75-1.04-1.247-1.286l-0.431,0.869c0.694,0.344,1.245,1.454,1.31,2.638c0.036,0.647-0.04,2.253-1.494,3.183
			c-2.403,1.539-4.124,0.512-5.055-0.043c-0.371-0.221-1.006-1.066-1.191-2.177c-0.13-0.78-0.074-1.959,0.932-3.144l-0.74-0.627
			c-0.327,0.385-0.569,0.769-0.75,1.146c-0.758-0.508-3.483-2.097-5.769-0.424c-1.087,0.794-1.708,1.612-2.046,2.399
			c-0.14-0.071-3.014-1.503-5.187-0.122c-2.25,1.429-2.68,3.276-2.645,4.573c0.016,0.588,0.196,1.466,0.654,2.308
			c-1.078,0.902-2.504,2.919-1.747,5.215h-7.8v0.97h8.188v-0.102c0.079,0.14,0.16,0.278,0.257,0.419
			c0.301,0.431,0.656,0.751,1.036,0.986c-0.149,0.256-1.083,2.015-0.234,4.392c0.745,2.085,2.524,2.629,3.844,2.629
			c0.03,0,0.055-0.003,0.084-0.004c-0.561,0.839-1.06,2.097-1.007,3.912c0.183,1.458,0.848,2.646,1.922,3.436
			c0.864,0.635,1.989,0.986,3.083,0.986c0.288,0,0.574-0.025,0.853-0.074c0.35-0.064,3.444-0.715,4.172-4.099
			c0.033-0.15,0.05-0.292,0.07-0.436c0.087,0.085,0.178,0.168,0.28,0.246c0.596,0.46,1.326,0.69,2.176,0.69
			c0.25,0,0.511-0.02,0.782-0.06c1.464-0.217,2.544-0.821,3.207-1.798c1.071-1.577,0.628-3.525,0.609-3.608l-0.087,0.021
			c0.477-0.509,0.838-1.151,1.082-1.94c0.405-1.779-0.025-3.12-0.623-4.061c0.517-1.057,1.721-1.554,1.733-1.558l-0.015-0.038
			c0.508,0.412,1.088,0.713,1.746,0.864c0.588,0.136,1.132,0.205,1.641,0.205c0.238,0,0.467-0.02,0.69-0.051l-0.078,0.083
			c0.043,0.041,1.044,1.004,1.014,2.762c-0.03,1.704-0.684,2.78-2.06,3.39c-2.135,0.933-3.114-0.029-3.155-0.071l-0.708,0.664
			c0.041,0.044,0.747,0.784,2.145,0.784c0.582,0,1.285-0.129,2.108-0.489c1.715-0.76,2.604-2.193,2.639-4.26
			c0.026-1.508-0.574-2.56-0.976-3.092c0.872-0.323,1.641-0.933,2.366-1.854c0.816-1.035,1.04-2.151,1.007-3.136h7.082v-0.971
			h-7.194c-0.209-1.054-0.625-1.808-0.662-1.871l-0.844,0.481c0.064,0.112,1.531,2.76-0.152,4.897
			c-1.062,1.348-2.259,2.134-4.648,1.584c-1.596-0.368-2.695-1.824-3.009-3.951c-0.075-1.435,0.619-2.413,1.213-2.982
			c0.779-0.744,1.632-1.017,1.891-0.989l0.095-0.966c-0.709-0.065-1.823,0.459-2.657,1.254c-1.048,1.001-1.586,2.328-1.507,3.78
			c0.193,1.32,0.647,2.418,1.309,3.242c-0.434,0.23-1.158,0.698-1.664,1.459c-0.557-0.585-1.066-0.874-1.078-0.882l-0.465,0.852
			c0.026,0.015,2.607,1.463,1.877,4.671c-0.315,1.02-1.016,2.401-3.474,2.63c-1.046,0.145-2.048-0.164-2.824-0.868
			c-0.88-0.798-1.375-2.003-1.325-3.248c-0.03-2.64,3.035-3.49,3.165-3.524l-0.248-0.939c-1.358,0.359-3.919,1.754-3.888,4.448
			c-0.061,1.504,0.552,2.992,1.643,3.981c0.834,0.757,1.873,1.156,2.962,1.156c0.207,0,0.416-0.014,0.626-0.044
			c0.965-0.089,1.764-0.347,2.423-0.762c0.05,0.564,0.036,1.567-0.53,2.401c-0.504,0.743-1.361,1.208-2.546,1.383
			c-0.916,0.134-1.663-0.011-2.216-0.435c-0.872-0.666-1.02-1.826-1.021-1.836l-0.059,0.007c-0.574-1.683-1.895-2.548-1.915-2.56
			l-0.524,0.817c0.092,0.059,2.232,1.482,1.62,4.324c-0.596,2.766-3.111,3.296-3.396,3.347c-0.849,0.153-2.13,0.039-3.188-0.738
			c-0.867-0.637-1.383-1.57-1.53-2.727c-0.093-3.245,1.856-4.349,1.939-4.395l-0.458-0.856c-0.037,0.02-0.367,0.205-0.773,0.601
			l-0.049-0.225c-0.112,0.025-2.748,0.558-3.631-1.915c-0.737-2.064,0.127-3.526,0.164-3.586l-0.369-0.228
			c0.549,0.235,1.126,0.322,1.658,0.322c0.608,0,1.157-0.113,1.538-0.248l-0.325-0.915c-0.023,0.009-2.361,0.812-3.587-0.951
			c-1.741-2.503,0.278-4.614,0.851-5.135c0.521,0.621,1.245,1.151,2.231,1.426c0.594,0.166,1.144,0.228,1.637,0.228
			c1.521,0,2.501-0.598,2.554-0.632l-0.513-0.824c-0.057,0.035-1.421,0.848-3.417,0.293c-1.94-0.541-2.69-2.472-2.722-3.639
			c-0.028-1.046,0.33-2.541,2.195-3.727c1.709-1.085,4.203,0.157,4.228,0.17l0.423-0.829c-0.494,1.181-0.347,2.292-0.127,3.152
			c0.319,1.241,1.218,2.375,2.406,3.032c0.756,0.418,1.592,0.63,2.447,0.63c0.544,0,1.098-0.086,1.642-0.26
			c0.49-0.156,0.897-0.377,1.24-0.634l-0.014,0.096c0.016,0.003,1.621,0.25,2.29,1.893c0.755,1.852-0.497,3.81-0.51,3.829
			l0.812,0.532c0.064-0.097,1.547-2.396,0.597-4.727c-0.595-1.46-1.745-2.078-2.452-2.328c0.413-0.524,0.65-1.094,0.767-1.584
			c0.585,0.349,1.646,0.977,3.052,0.977c0.879,0,1.893-0.247,3.008-0.96c1.327-0.85,2.034-2.328,1.94-4.054
			c-0.02-0.379-0.082-0.746-0.174-1.094c0.215,0.044,0.43,0.067,0.64,0.067c1.274,0,2.391-0.685,2.459-0.728
			c0.679,0.941,1.833,1.855,3.774,1.855c0.187,0,0.381-0.009,0.583-0.026c1.922-0.169,4.334-1.095,4.908-4.542
			c0.143-0.858-0.007-2.612-1.011-3.93c-0.784-1.03-1.927-1.63-3.395-1.783c-1.116-0.116-2.026,0.057-2.764,0.383v-2.002
			l47.523-0.045l0.038,0.049l-0.006,13.627h0.971l0.007-13.677h0.047v-0.078l6.884-5.193l7.149,5.245v6.906
			c-1.051-1.039-2.722-2.067-4.985-1.549c-3.55,0.76-3.972,4.142-3.971,4.146c-0.014,0.076-0.282,1.676,0.668,3.521
			c-0.244,0.181-0.552,0.428-0.92,0.76l0.653,0.72c0.848-0.768,1.339-1.03,1.342-1.032l-0.024-0.046l0.228-0.16
			c-1.274-1.813-0.994-3.578-0.986-3.624c0.003-0.027,0.339-2.721,3.221-3.337c3.381-0.773,5.157,2.627,5.231,2.773l0.117-0.06
			l0.005,0.014c0.024-0.009,2.465-0.923,3.408,0.387c0.575,0.8,0.44,1.575,0.436,1.603l0.952,0.191
			C228.041,33.603,228.261,32.446,227.43,31.29z M143.995,40.343c-1.141,0.364-2.321,0.26-3.323-0.295
			c-0.959-0.53-1.683-1.436-1.936-2.424c-0.345-1.346-0.398-2.941,1.822-4.565c2.041-1.493,4.784,0.536,4.812,0.556l0.09-0.118
			c-0.206,0.755-0.195,1.448-0.105,1.987c0.143,0.858,0.504,1.612,0.916,2.152l-0.123-0.002
			C146.144,37.717,146.068,39.682,143.995,40.343z M181.683,21.517c0.011-0.175,0.186-2.044,2.504-2.044
			c2.311,0,2.533,1.675,2.554,2.039L181.683,21.517z M187.712,21.512c-0.027-1.067-0.789-3.01-3.525-3.01
			c-2.636,0-3.426,1.952-3.476,2.984l0.66,0.032l-6.052,0.006l8.875-4.76l9.316,4.743L187.712,21.512z M195.645,21.504
			l-11.463-5.836l-10.921,5.857l-12.024,0.011l8.753-4.386h9.901V16.74h0.03v-2.228h8.241v1.764h0.037v0.954h9.914l9.247,4.263
			L195.645,21.504z"/>
	</g>
	<circle fill="#1A1A1A" cx="184.078" cy="0.485" r="0.485"/>
	<circle fill="#1A1A1A" cx="184.078" cy="8.169" r="0.485"/>
</g>
</svg>
